<svg xmlns="http://www.w3.org/2000/svg" viewBox="0 0 400 400" preserveAspectRatio="none">
  <defs>
    <filter id="scratchCoarse" x="-30%" y="-30%" width="160%" height="160%">
      <feTurbulence type="fractalNoise" baseFrequency="0.022" numOctaves="5" seed="4" result="coarse" />
      <feDisplacementMap in="SourceGraphic" in2="coarse" scale="58" xChannelSelector="R" yChannelSelector="G" result="torn" />
      <feGaussianBlur in="torn" stdDeviation="1.6" />
    </filter>
    <filter id="scratchFine" x="-40%" y="-40%" width="180%" height="180%">
      <feTurbulence type="turbulence" baseFrequency="0.14" numOctaves="3" seed="19" result="grain" />
      <feDisplacementMap in="SourceGraphic" in2="grain" scale="14" xChannelSelector="R" yChannelSelector="G" />
    </filter>
  </defs>
  <g filter="url(#scratchCoarse)">
    <path fill="#fff"
      d="M 34 42 L 58 28 L 92 18 L 142 12 L 210 10 L 278 14 L 332 24 L 362 38 L 378 62
         L 386 108 L 384 168 L 378 236 L 366 302 L 348 352 L 318 376 L 268 386
         L 198 388 L 128 382 L 78 368 L 48 342 L 30 300 L 22 248 L 18 188 L 20 128 L 26 78 Z" />
  </g>
  <g filter="url(#scratchFine)" stroke="#fff" stroke-linecap="round" fill="none">
    <path stroke-width="4" d="M 24 72 L 8 64 M 18 118 L 4 126 M 28 168 L 10 176" />
    <path stroke-width="3.5" d="M 42 24 L 38 6 M 98 14 L 96 2 M 168 10 L 170 0" />
    <path stroke-width="4" d="M 248 12 L 252 0 M 318 20 L 326 8 M 372 44 L 388 36" />
    <path stroke-width="3.5" d="M 386 96 L 398 88 M 390 168 L 400 162 M 382 248 L 396 252" />
    <path stroke-width="4" d="M 372 328 L 388 340 M 318 378 L 324 394 M 248 386 L 244 400" />
    <path stroke-width="3.5" d="M 168 386 L 162 400 M 92 376 L 84 392 M 38 334 L 22 346" />
    <path stroke-width="3" d="M 26 248 L 10 256 M 30 188 L 14 184 M 34 128 L 18 120" />
  </g>
</svg>
