<svg xmlns="http://www.w3.org/2000/svg" viewBox="0 0 1440 100" preserveAspectRatio="none">
  <path fill="#f8f3ec" d="M 0,100 L 0,48.0 L 22,63.55943444857986 L 48,53.35167384444752 L 69,57.255028078966035 L 92,48.830643723727775 L 108,68 L 130,58.99143781223355 L 154,62.7110733319557 L 180,47.541663738694865 L 195,55.496115588506285 L 213,43.93749207618883 L 228,55.43266721131015 L 254,63.52756943959178 L 279,52.597040768287975 L 293,49.99262202659576 L 313,42.85212051741145 L 337,49.66733806219143 L 360,45.116672902551386 L 376,43.41430638805427 L 390,50.07697174173498 L 412,26.090542868883063 L 426,25.444792113126525 L 443,53.2211831599469 L 460,45.34755793102166 L 474,51.506611740424496 L 495,39.563602550847975 L 516,49.89000789425394 L 533,49.87403261275508 L 550,55.8630792534726 L 568,52.88651547638011 L 582,60.344640612508606 L 597,54.745419821196265 L 621,50.535164630198864 L 641,60.5147408476422 L 656,65.9072082793073 L 674,53.97156496297239 L 700,50.281770087913976 L 722,51.020145240714 L 736,42.93225192972106 L 759,62.753538604905245 L 774,49.135180408287226 L 789,62.41943995175915 L 807,45.30715864465083 L 822,31.566576773620646 L 846,28.96052301162068 L 863,33.34500213803018 L 877,41.21125608447754 L 897,46.96373017858538 L 917,37.21417835465729 L 932,42.00476391390547 L 956,30.314559258970668 L 982,46.513491554564865 L 1000,36.81485073694133 L 1015,37.14745294649101 L 1034,30.09048878286923 L 1054,56.34395824551691 L 1069,38.100998021614956 L 1086,58.085576763456935 L 1101,37.770142674631074 L 1115,53.237750030322374 L 1141,56.55985799547699 L 1157,63.65122266077485 L 1179,49.64677820701026 L 1200,59.99809493146019 L 1217,66.837576241355 L 1243,46.840389329943676 L 1263,61.507123691513854 L 1283,42.76015271865356 L 1303,50.695749130484806 L 1320,35.77604291711073 L 1338,60.66792903364406 L 1364,48.6736571333868 L 1382,56.76579570574655 L 1396,33.43955197025736 L 1412,38.14315744245137 L 1435,44.77545640424546 L 1440,44.77545640424546 L 1440,100 L 0,100"/>
</svg>
